<?xml version="1.0" encoding="UTF-8" standalone="no"?>
<svg width="40px" height="40px" viewBox="0 0 40 40" version="1.1" xmlns="http://www.w3.org/2000/svg" xmlns:xlink="http://www.w3.org/1999/xlink">
    <!-- Generator: Sketch 50.2 (55047) - http://www.bohemiancoding.com/sketch -->
    <title>Rectangle 12</title>
    <desc>Created with Sketch.</desc>
    <defs></defs>
    <g id="Symbols" stroke="none" stroke-width="1" fill="none" fill-rule="evenodd">
        <g id="icon-/-more">
            <g>
                <rect id="Rectangle-12" fill-opacity="0" fill="#CCE6F8" fill-rule="nonzero" x="0" y="0" width="40" height="40"></rect>
                <path d="M20,16 C21.1,16 22,15.1 22,14 C22,12.9 21.1,12 20,12 C18.9,12 18,12.9 18,14 C18,15.1 18.9,16 20,16 L20,16 Z M20,18 C18.9,18 18,18.9 18,20 C18,21.1 18.9,22 20,22 C21.1,22 22,21.1 22,20 C22,18.9 21.1,18 20,18 L20,18 Z M20,24 C18.9,24 18,24.9 18,26 C18,27.1 18.9,28 20,28 C21.1,28 22,27.1 22,26 C22,24.9 21.1,24 20,24 L20,24 Z" id="Shape" fill="#979797"></path>
            </g>
        </g>
    </g>
</svg>