<?xml version="1.0" encoding="UTF-8" standalone="no"?>
<svg width="16px" height="16px" viewBox="0 0 16 16" version="1.1" xmlns="http://www.w3.org/2000/svg" xmlns:xlink="http://www.w3.org/1999/xlink">
    <!-- Generator: Sketch 50.2 (55047) - http://www.bohemiancoding.com/sketch -->
    <title>Rectangle 12</title>
    <desc>Created with Sketch.</desc>
    <defs></defs>
    <g id="Symbols" stroke="none" stroke-width="1" fill="none" fill-rule="evenodd">
        <g id="icon-/-access">
            <g>
                <rect id="Rectangle-12" fill-opacity="0" fill="#CCE6F8" fill-rule="nonzero" x="0" y="0" width="16" height="16"></rect>
                <g id="Group-2" transform="translate(2.000000, 0.000000)" fill="#225582">
                    <g id="Group" fill-rule="nonzero">
                        <path d="M5.87109375,0.0264712303 L0.24609375,2.12153252 C0.0984971535,2.17642591 0.000256421942,2.31898546 -3.55271368e-14,2.47864524 L-3.55271368e-14,9.1447646 C-3.55271368e-14,10.6338389 0.757308025,11.9714535 1.87013928,13.0508862 C2.98295178,14.1303189 4.47189375,14.982691 5.7832125,15.9299063 C5.9130946,16.0233646 6.0869054,16.0233646 6.2167875,15.9299063 C7.52810625,14.982691 8.87840178,14.1303189 9.99121428,13.0508862 C11.1040455,11.9714535 12,10.6338389 12,9.1447646 L12,2.47864524 C11.9997436,2.31898546 11.9015028,2.17642591 11.7539062,2.12153252 L6.12890625,0.0264712303 C6.07122954,0.00341096917 6.0088253,-0.00476873476 5.947275,0.00266371557 C5.92112081,0.00782823043 5.89558287,0.0158091283 5.87109375,0.0264712303 Z M6,1 L11,2.8951919 L11,9.08770298 C11,10.2517218 10.3670714,11.2618395 9.37610714,12.2386663 C8.43901786,13.1624047 7.19925,14.0251652 6,14.8999996 C4.80075,14.0251652 3.56098214,13.1624047 2.62389286,12.2386663 C1.63292857,11.2618395 1,10.2517218 1,9.08770298 L1,2.8951919 L6,1 Z" id="Shape"></path>
                    </g>
                    <circle id="Oval-2" cx="6.33333333" cy="5.66666667" r="1.66666667"></circle>
                    <path d="M9.33333333,10.6666667 C9.33333333,9.93682861 8.80592855,7.33333333 6.33333333,7.33333333 C3.86073812,7.33333333 3.33333333,9.93682861 3.33333333,10.6666667 L9.33333333,10.6666667 Z" id="Oval-4"></path>
                </g>
            </g>
        </g>
    </g>
</svg>