<?xml version="1.0" encoding="UTF-8" standalone="no"?>
<svg width="40px" height="40px" viewBox="0 0 40 40" version="1.1" xmlns="http://www.w3.org/2000/svg" xmlns:xlink="http://www.w3.org/1999/xlink">
    <!-- Generator: Sketch 50.2 (55047) - http://www.bohemiancoding.com/sketch -->
    <title>Rectangle</title>
    <desc>Created with Sketch.</desc>
    <defs></defs>
    <g id="Symbols" stroke="none" stroke-width="1" fill="none" fill-rule="evenodd">
        <g id="icon-/-refresh">
            <g id="icon-/-search">
                <rect id="Rectangle" fill-opacity="0" fill="#D8D8D8" fill-rule="nonzero" x="0" y="0" width="40" height="40"></rect>
                <g id="Group" transform="translate(14.000000, 11.000000)" fill="#979797">
                    <path d="M12.935619,4.82424242 L11.2121905,5.81471861 C11.648,6.547671 11.8857143,7.39948052 11.8857143,8.29090909 C11.8857143,11.0246234 9.66704762,13.24329 6.93333333,13.24329 C4.19961905,13.24329 1.98095238,11.0246234 1.98095238,8.29090909 C1.98095238,5.65624242 4.04114286,3.49700433 6.63619048,3.33852814 L6.63619048,2.64519481 L6.63619048,1.35757576 C2.95161905,1.51605195 0,4.56671861 0,8.29090909 C0,12.1141472 3.11009524,15.2242424 6.93333333,15.2242424 C10.7565714,15.2242424 13.8666667,12.1141472 13.8666667,8.29090909 C13.8666667,7.02309957 13.5299048,5.85433766 12.935619,4.82424242 Z" id="Shape" fill-rule="nonzero"></path>
                    <path d="M9.99269511,2.82025566 L7.16942655,4.58479851 C6.93525829,4.73115367 6.6267831,4.65996709 6.48042793,4.42579883 C6.43076181,4.34633303 6.40442708,4.25450921 6.40442708,4.16079936 L6.40442708,0.631713665 C6.40442708,0.35557129 6.62828471,0.131713665 6.90442708,0.131713665 C6.99813694,0.131713665 7.08996075,0.158048387 7.16942655,0.207714513 L9.99269511,1.97225736 C10.2268634,2.11861252 10.29805,2.42708771 10.1516948,2.66125598 C10.1114544,2.72564055 10.0570797,2.78001531 9.99269511,2.82025566 Z" id="Triangle"></path>
                </g>
            </g>
        </g>
    </g>
</svg>