<?xml version="1.0" encoding="UTF-8"?>
<svg width="16px" height="16px" viewBox="0 0 16 16" version="1.1" xmlns="http://www.w3.org/2000/svg" xmlns:xlink="http://www.w3.org/1999/xlink">
    <!-- Generator: Sketch 51.3 (57544) - http://www.bohemiancoding.com/sketch -->
    <title>icon / error</title>
    <desc>Created with Sketch.</desc>
    <defs></defs>
    <g id="Mobile_Variant_2" stroke="none" stroke-width="1" fill="none" fill-rule="evenodd">
        <g id="8.2_product_Main_Filing_process" transform="translate(-20.000000, -569.000000)" fill-rule="nonzero">
            <g id="Group-6" transform="translate(0.000000, 553.000000)">
                <g id="icon-/-error" transform="translate(16.000000, 12.000000)">
                    <rect id="Rectangle-20" fill-opacity="0" fill="#D8D8D8" x="0" y="0" width="24" height="24"></rect>
                    <path d="M12,20 C7.581722,20 4,16.418278 4,12 C4,7.581722 7.581722,4 12,4 C16.418278,4 20,7.581722 20,12 C20,16.418278 16.418278,20 12,20 Z M11,11 L11,13 L13,13 L13,11 L11,11 Z M14,11 L14,13 L16,13 L16,11 L14,11 Z M8,11 L8,13 L10,13 L10,11 L8,11 Z" id="Combined-Shape" fill="#979797"></path>
                </g>
            </g>
        </g>
    </g>
</svg>